<mxfile host="www.draw.io" modified="2020-02-25T06:47:27.316Z" agent="Mozilla/5.0 (Windows NT 10.0; Win64; x64) AppleWebKit/537.36 (KHTML, like Gecko) Chrome/80.0.3987.122 Safari/537.36" etag="3Dr2gLYB8Yco6LGn1QeZ" version="12.7.4" type="github">
  <diagram id="_uxlIRpXxUCIxdz3rcBY" name="Page-1">
    <mxGraphModel dx="1056" dy="567" grid="1" gridSize="10" guides="1" tooltips="1" connect="1" arrows="1" fold="1" page="1" pageScale="1" pageWidth="827" pageHeight="1169" math="0" shadow="0">
      <root>
        <mxCell id="0" />
        <mxCell id="1" parent="0" />
        <mxCell id="Ao543wjSGNBjirsRqFeG-1" style="edgeStyle=orthogonalEdgeStyle;rounded=0;orthogonalLoop=1;jettySize=auto;html=1;exitX=0.5;exitY=1;exitDx=0;exitDy=0;entryX=0.5;entryY=0;entryDx=0;entryDy=0;" edge="1" parent="1" source="Ao543wjSGNBjirsRqFeG-2" target="Ao543wjSGNBjirsRqFeG-10">
          <mxGeometry relative="1" as="geometry" />
        </mxCell>
        <mxCell id="Ao543wjSGNBjirsRqFeG-2" value="User melakukan input data" style="rounded=1;whiteSpace=wrap;html=1;arcSize=24;fillColor=#ffffc0;strokeColor=#ff0000;shadow=0;comic=0;labelBackgroundColor=none;fontFamily=Verdana;fontSize=12;fontColor=#000000;align=center;" vertex="1" parent="1">
          <mxGeometry x="290" y="270" width="120" height="60" as="geometry" />
        </mxCell>
        <mxCell id="Ao543wjSGNBjirsRqFeG-3" style="edgeStyle=elbowEdgeStyle;html=1;labelBackgroundColor=none;endArrow=open;endSize=8;strokeColor=#000000;fontFamily=Verdana;fontSize=12;align=left;" edge="1" parent="1" source="Ao543wjSGNBjirsRqFeG-4" target="Ao543wjSGNBjirsRqFeG-2">
          <mxGeometry relative="1" as="geometry" />
        </mxCell>
        <mxCell id="Ao543wjSGNBjirsRqFeG-4" value="" style="ellipse;html=1;shape=startState;fillColor=#000000;strokeColor=#ff0000;rounded=1;shadow=0;comic=0;labelBackgroundColor=none;fontFamily=Verdana;fontSize=12;fontColor=#000000;align=center;direction=south;" vertex="1" parent="1">
          <mxGeometry x="335" y="175" width="30" height="30" as="geometry" />
        </mxCell>
        <mxCell id="Ao543wjSGNBjirsRqFeG-5" style="edgeStyle=orthogonalEdgeStyle;rounded=0;orthogonalLoop=1;jettySize=auto;html=1;exitX=0;exitY=0.5;exitDx=0;exitDy=0;entryX=0;entryY=0.5;entryDx=0;entryDy=0;" edge="1" parent="1" source="Ao543wjSGNBjirsRqFeG-7" target="Ao543wjSGNBjirsRqFeG-2">
          <mxGeometry relative="1" as="geometry">
            <Array as="points">
              <mxPoint x="240" y="520" />
              <mxPoint x="240" y="300" />
            </Array>
          </mxGeometry>
        </mxCell>
        <mxCell id="Ao543wjSGNBjirsRqFeG-6" style="edgeStyle=orthogonalEdgeStyle;rounded=0;orthogonalLoop=1;jettySize=auto;html=1;exitX=1;exitY=0.5;exitDx=0;exitDy=0;strokeColor=#000000;endArrow=none;endFill=0;" edge="1" parent="1" source="Ao543wjSGNBjirsRqFeG-7">
          <mxGeometry relative="1" as="geometry">
            <mxPoint x="460" y="390" as="targetPoint" />
            <Array as="points">
              <mxPoint x="530" y="520" />
              <mxPoint x="530" y="390" />
            </Array>
          </mxGeometry>
        </mxCell>
        <mxCell id="Ao543wjSGNBjirsRqFeG-7" value="Auto-Correct" style="rounded=1;whiteSpace=wrap;html=1;arcSize=24;fillColor=#ffffc0;strokeColor=#ff0000;shadow=0;comic=0;labelBackgroundColor=none;fontFamily=Verdana;fontSize=12;fontColor=#000000;align=center;" vertex="1" parent="1">
          <mxGeometry x="290" y="490" width="120" height="60" as="geometry" />
        </mxCell>
        <mxCell id="Ao543wjSGNBjirsRqFeG-8" value="t" style="edgeStyle=orthogonalEdgeStyle;rounded=0;orthogonalLoop=1;jettySize=auto;html=1;exitX=1;exitY=0.5;exitDx=0;exitDy=0;strokeColor=#000000;" edge="1" parent="1" source="Ao543wjSGNBjirsRqFeG-10" target="Ao543wjSGNBjirsRqFeG-13">
          <mxGeometry relative="1" as="geometry" />
        </mxCell>
        <mxCell id="Ao543wjSGNBjirsRqFeG-9" value="Tidak terdapat typo&lt;br&gt;" style="text;html=1;align=center;verticalAlign=middle;resizable=0;points=[];labelBackgroundColor=#ffffff;" vertex="1" connectable="0" parent="Ao543wjSGNBjirsRqFeG-8">
          <mxGeometry x="-0.3617" relative="1" as="geometry">
            <mxPoint as="offset" />
          </mxGeometry>
        </mxCell>
        <mxCell id="Ao543wjSGNBjirsRqFeG-10" value="" style="rhombus;whiteSpace=wrap;html=1;fillColor=#ffffc0;strokeColor=#ff0000;" vertex="1" parent="1">
          <mxGeometry x="310" y="370" width="80" height="40" as="geometry" />
        </mxCell>
        <mxCell id="Ao543wjSGNBjirsRqFeG-11" value="Terdapat typo" style="edgeStyle=orthogonalEdgeStyle;html=1;align=left;verticalAlign=top;endArrow=open;endSize=8;strokeColor=#000000;" edge="1" parent="1" source="Ao543wjSGNBjirsRqFeG-10">
          <mxGeometry x="-1" relative="1" as="geometry">
            <mxPoint x="350" y="490" as="targetPoint" />
          </mxGeometry>
        </mxCell>
        <mxCell id="Ao543wjSGNBjirsRqFeG-12" style="edgeStyle=orthogonalEdgeStyle;rounded=0;orthogonalLoop=1;jettySize=auto;html=1;exitX=1;exitY=0.5;exitDx=0;exitDy=0;endArrow=classic;endFill=1;strokeColor=#000000;" edge="1" parent="1" source="Ao543wjSGNBjirsRqFeG-13">
          <mxGeometry relative="1" as="geometry">
            <mxPoint x="810" y="390" as="targetPoint" />
          </mxGeometry>
        </mxCell>
        <mxCell id="Ao543wjSGNBjirsRqFeG-13" value="Simpan data" style="rounded=1;whiteSpace=wrap;html=1;arcSize=40;fontColor=#000000;fillColor=#ffffc0;strokeColor=#ff0000;" vertex="1" parent="1">
          <mxGeometry x="600" y="370" width="120" height="40" as="geometry" />
        </mxCell>
        <mxCell id="Ao543wjSGNBjirsRqFeG-20" style="edgeStyle=orthogonalEdgeStyle;rounded=0;orthogonalLoop=1;jettySize=auto;html=1;exitX=0.5;exitY=0;exitDx=0;exitDy=0;entryX=1;entryY=0.5;entryDx=0;entryDy=0;" edge="1" parent="1" source="Ao543wjSGNBjirsRqFeG-17" target="Ao543wjSGNBjirsRqFeG-2">
          <mxGeometry relative="1" as="geometry" />
        </mxCell>
        <mxCell id="Ao543wjSGNBjirsRqFeG-21" value="Informasi kurang rinci" style="text;html=1;align=center;verticalAlign=middle;resizable=0;points=[];labelBackgroundColor=#ffffff;" vertex="1" connectable="0" parent="Ao543wjSGNBjirsRqFeG-20">
          <mxGeometry x="-0.253" y="1" relative="1" as="geometry">
            <mxPoint as="offset" />
          </mxGeometry>
        </mxCell>
        <mxCell id="Ao543wjSGNBjirsRqFeG-22" style="edgeStyle=orthogonalEdgeStyle;rounded=0;orthogonalLoop=1;jettySize=auto;html=1;exitX=1;exitY=0.5;exitDx=0;exitDy=0;" edge="1" parent="1" source="Ao543wjSGNBjirsRqFeG-17" target="Ao543wjSGNBjirsRqFeG-23">
          <mxGeometry relative="1" as="geometry">
            <mxPoint x="980" y="390" as="targetPoint" />
          </mxGeometry>
        </mxCell>
        <mxCell id="Ao543wjSGNBjirsRqFeG-17" value="Feedback?" style="rhombus;whiteSpace=wrap;html=1;fillColor=#ffffc0;strokeColor=#ff0000;" vertex="1" parent="1">
          <mxGeometry x="810" y="370" width="80" height="40" as="geometry" />
        </mxCell>
        <mxCell id="Ao543wjSGNBjirsRqFeG-24" style="edgeStyle=orthogonalEdgeStyle;rounded=0;orthogonalLoop=1;jettySize=auto;html=1;exitX=1;exitY=0.5;exitDx=0;exitDy=0;" edge="1" parent="1" source="Ao543wjSGNBjirsRqFeG-23" target="Ao543wjSGNBjirsRqFeG-25">
          <mxGeometry relative="1" as="geometry">
            <mxPoint x="1160" y="389.47058823529414" as="targetPoint" />
          </mxGeometry>
        </mxCell>
        <mxCell id="Ao543wjSGNBjirsRqFeG-23" value="Server menerima data" style="rounded=1;whiteSpace=wrap;html=1;arcSize=40;fontColor=#000000;fillColor=#ffffc0;strokeColor=#ff0000;" vertex="1" parent="1">
          <mxGeometry x="950" y="370" width="120" height="40" as="geometry" />
        </mxCell>
        <mxCell id="Ao543wjSGNBjirsRqFeG-25" value="" style="ellipse;html=1;shape=endState;fillColor=#000000;strokeColor=#ff0000;" vertex="1" parent="1">
          <mxGeometry x="1145" y="375.0005882352941" width="30" height="30" as="geometry" />
        </mxCell>
      </root>
    </mxGraphModel>
  </diagram>
</mxfile>
